<svg width="24" height="24" viewBox="0 0 24 24" fill="none" xmlns="http://www.w3.org/2000/svg">
<g clip-path="url(#clip0_205_1471)">
<path d="M13.4091 12.2764C13.4091 15.7428 10.6312 18.5529 7.20456 18.5529C3.77796 18.5529 1 15.7428 1 12.2764C1 8.81003 3.77796 5.99997 7.20456 5.99997C10.6312 5.99997 13.4091 8.81003 13.4091 12.2764Z" fill="#1F222E"/>
<path d="M20.2158 12.2764C20.2158 15.5395 18.8268 18.1846 17.1134 18.1846C15.4 18.1846 14.011 15.5393 14.011 12.2764C14.011 9.01356 15.4002 6.36827 17.1136 6.36827C18.827 6.36827 20.216 9.01356 20.216 12.2764" fill="#1F222E"/>
<path d="M23.0001 12.2764C23.0001 15.2 22.5117 17.57 21.909 17.57C21.3063 17.57 20.8179 15.2 20.8179 12.2764C20.8179 9.35285 21.3063 6.98289 21.909 6.98289C22.5117 6.98289 23.0001 9.35285 23.0001 12.2764Z" fill="#1F222E"/>
</g>
<defs>
<clipPath id="clip0_205_1471">
<rect width="22" height="12.5529" fill="white" transform="translate(1 5.99997)"/>
</clipPath>
</defs>
</svg>
