<svg width="24" height="24" viewBox="0 0 24 24" fill="none" xmlns="http://www.w3.org/2000/svg">
<path fill-rule="evenodd" clip-rule="evenodd" d="M20.2947 3.69716C18.2267 1.63606 15.4767 0.501216 12.5464 0.5C6.50806 0.5 1.59411 5.3897 1.59167 11.4009C1.59044 13.3221 2.09522 15.1977 3.05406 16.8507L1.5 22.5L7.30678 20.9844C8.90667 21.8535 10.7082 22.3103 12.5416 22.3109H12.5464C18.5836 22.3109 23.4982 17.4206 23.5 11.41C23.5012 8.49685 22.3627 5.75825 20.2947 3.69777V3.69716ZM12.5464 20.4699H12.5428C10.9093 20.4699 9.30694 20.0326 7.90872 19.2068L7.57628 19.0103L4.13022 19.9098L5.04994 16.5661L4.83361 16.2231C3.92244 14.7805 3.44089 13.1129 3.4415 11.4009C3.44333 6.40535 7.528 2.34094 12.5501 2.34094C14.9817 2.34215 17.2679 3.28543 18.9869 4.99865C20.706 6.71126 21.652 8.98825 21.6508 11.4088C21.6483 16.4049 17.5643 20.4693 12.5464 20.4693V20.4699ZM17.5404 13.6839C17.2667 13.5477 15.921 12.8891 15.6698 12.7978C15.4187 12.7066 15.2366 12.6616 15.0544 12.9341C14.8723 13.2071 14.3474 13.8208 14.1879 14.002C14.0284 14.1839 13.8683 14.2064 13.5951 14.0701C13.3213 13.9339 12.4395 13.6462 11.3939 12.7182C10.5805 11.9957 10.0311 11.1041 9.871 10.831C9.7115 10.5579 9.85389 10.4108 9.99078 10.2751C10.1136 10.1529 10.2646 9.95707 10.4014 9.79773C10.5383 9.639 10.5836 9.52466 10.6752 9.34342C10.7669 9.16158 10.7211 9.00285 10.6526 8.86601C10.5842 8.72978 10.0372 7.38876 9.80867 6.84384C9.58622 6.3129 9.36072 6.38467 9.19328 6.37615C9.03378 6.36825 8.85106 6.36703 8.66833 6.36703C8.48561 6.36703 8.18922 6.43515 7.93806 6.70761C7.68689 6.98068 6.97983 7.63933 6.97983 8.97974C6.97983 10.3201 7.96067 11.6156 8.09756 11.798C8.23444 11.9798 10.0281 14.7312 12.7732 15.9111C13.4258 16.192 13.9361 16.3593 14.3339 16.4852C14.9897 16.6926 15.5861 16.6634 16.0579 16.5934C16.5834 16.515 17.6773 15.9342 17.9053 15.298C18.1332 14.6619 18.1332 14.1164 18.0648 14.0026C17.9963 13.8889 17.8136 13.8208 17.5398 13.6846V13.6833L17.5404 13.6839Z" fill="#1F222E"/>
</svg>
